<svg xmlns="http://www.w3.org/2000/svg" xmlns:xlink="http://www.w3.org/1999/xlink" width="300" height="124" viewBox="260 206 300 124" role="img" aria-labelledby="logo-title">
<title id="logo-title">Touchable Interface Lab</title>
<defs>
<clipPath id="clip-0">
<path clip-rule="nonzero" d="M 0.457031 0 L 841.324219 0 L 841.324219 594.554688 L 0.457031 594.554688 Z M 0.457031 0 "/>
</clipPath>
<clipPath id="clip-1">
<path clip-rule="nonzero" d="M 265 282 L 290 282 L 290 306 L 265 306 Z M 265 282 "/>
</clipPath>
<clipPath id="clip-2">
<path clip-rule="nonzero" d="M 265.925781 293.882812 C 265.925781 300.445312 271.246094 305.761719 277.804688 305.761719 C 284.367188 305.761719 289.683594 300.445312 289.683594 293.882812 C 289.683594 287.324219 284.367188 282.007812 277.804688 282.007812 C 271.246094 282.007812 265.925781 287.324219 265.925781 293.882812 "/>
</clipPath>
<linearGradient id="linear-pattern-0" gradientUnits="userSpaceOnUse" x1="-0.253792" y1="0" x2="1.085564" y2="0" gradientTransform="matrix(20.811692, 12.700558, -12.700558, 20.811692, 269.151011, 288.602236)">
<stop offset="0" stop-color="rgb(78.823853%, 86.66687%, 94.902039%)" stop-opacity="1"/>
<stop offset="0.125" stop-color="rgb(78.823853%, 86.66687%, 94.902039%)" stop-opacity="1"/>
<stop offset="0.1875" stop-color="rgb(78.823853%, 86.66687%, 94.902039%)" stop-opacity="1"/>
<stop offset="0.191406" stop-color="rgb(78.039551%, 86.274719%, 94.902039%)" stop-opacity="1"/>
<stop offset="0.195313" stop-color="rgb(77.6474%, 85.490417%, 94.509888%)" stop-opacity="1"/>
<stop offset="0.199219" stop-color="rgb(76.470947%, 85.098267%, 94.509888%)" stop-opacity="1"/>
<stop offset="0.203125" stop-color="rgb(75.686646%, 84.313965%, 94.117737%)" stop-opacity="1"/>
<stop offset="0.207031" stop-color="rgb(74.902344%, 83.921814%, 93.725586%)" stop-opacity="1"/>
<stop offset="0.210937" stop-color="rgb(73.725891%, 83.529663%, 93.333435%)" stop-opacity="1"/>
<stop offset="0.214844" stop-color="rgb(72.941589%, 82.745361%, 92.941284%)" stop-opacity="1"/>
<stop offset="0.21875" stop-color="rgb(72.157288%, 81.96106%, 92.549133%)" stop-opacity="1"/>
<stop offset="0.222656" stop-color="rgb(70.980835%, 81.568909%, 92.156982%)" stop-opacity="1"/>
<stop offset="0.226563" stop-color="rgb(70.196533%, 80.784607%, 92.156982%)" stop-opacity="1"/>
<stop offset="0.230469" stop-color="rgb(69.412231%, 80.392456%, 91.764832%)" stop-opacity="1"/>
<stop offset="0.234375" stop-color="rgb(68.62793%, 79.608154%, 91.372681%)" stop-opacity="1"/>
<stop offset="0.238281" stop-color="rgb(67.451477%, 79.216003%, 90.98053%)" stop-opacity="1"/>
<stop offset="0.242187" stop-color="rgb(66.667175%, 78.431702%, 90.588379%)" stop-opacity="1"/>
<stop offset="0.246094" stop-color="rgb(65.882874%, 78.039551%, 90.196228%)" stop-opacity="1"/>
<stop offset="0.25" stop-color="rgb(64.706421%, 77.255249%, 89.804077%)" stop-opacity="1"/>
<stop offset="0.253906" stop-color="rgb(63.922119%, 76.863098%, 89.411926%)" stop-opacity="1"/>
<stop offset="0.257812" stop-color="rgb(63.137817%, 76.470947%, 89.411926%)" stop-opacity="1"/>
<stop offset="0.261719" stop-color="rgb(62.353516%, 75.686646%, 89.019775%)" stop-opacity="1"/>
<stop offset="0.265625" stop-color="rgb(61.569214%, 75.294495%, 88.627625%)" stop-opacity="1"/>
<stop offset="0.269531" stop-color="rgb(60.784912%, 74.510193%, 88.235474%)" stop-opacity="1"/>
<stop offset="0.273438" stop-color="rgb(59.608459%, 74.118042%, 88.235474%)" stop-opacity="1"/>
<stop offset="0.277344" stop-color="rgb(58.824158%, 73.725891%, 87.843323%)" stop-opacity="1"/>
<stop offset="0.28125" stop-color="rgb(58.039856%, 72.941589%, 87.451172%)" stop-opacity="1"/>
<stop offset="0.285156" stop-color="rgb(57.255554%, 72.549438%, 87.059021%)" stop-opacity="1"/>
<stop offset="0.289062" stop-color="rgb(56.471252%, 72.157288%, 86.66687%)" stop-opacity="1"/>
<stop offset="0.292969" stop-color="rgb(55.686951%, 71.372986%, 86.66687%)" stop-opacity="1"/>
<stop offset="0.296875" stop-color="rgb(54.902649%, 70.980835%, 86.274719%)" stop-opacity="1"/>
<stop offset="0.300781" stop-color="rgb(54.118347%, 70.588684%, 86.274719%)" stop-opacity="1"/>
<stop offset="0.304688" stop-color="rgb(53.334045%, 70.196533%, 85.882568%)" stop-opacity="1"/>
<stop offset="0.308594" stop-color="rgb(52.549744%, 69.804382%, 85.490417%)" stop-opacity="1"/>
<stop offset="0.3125" stop-color="rgb(51.765442%, 69.412231%, 85.098267%)" stop-opacity="1"/>
<stop offset="0.316406" stop-color="rgb(50.98114%, 69.020081%, 84.706116%)" stop-opacity="1"/>
<stop offset="0.320312" stop-color="rgb(50.196838%, 68.235779%, 84.706116%)" stop-opacity="1"/>
<stop offset="0.324219" stop-color="rgb(49.411011%, 67.843628%, 84.313965%)" stop-opacity="1"/>
<stop offset="0.328125" stop-color="rgb(48.626709%, 67.451477%, 84.313965%)" stop-opacity="1"/>
<stop offset="0.332031" stop-color="rgb(47.842407%, 67.059326%, 83.921814%)" stop-opacity="1"/>
<stop offset="0.335938" stop-color="rgb(47.058105%, 66.667175%, 83.529663%)" stop-opacity="1"/>
<stop offset="0.339844" stop-color="rgb(46.273804%, 66.275024%, 83.529663%)" stop-opacity="1"/>
<stop offset="0.34375" stop-color="rgb(45.489502%, 65.882874%, 83.137512%)" stop-opacity="1"/>
<stop offset="0.347656" stop-color="rgb(44.7052%, 65.490723%, 83.137512%)" stop-opacity="1"/>
<stop offset="0.351562" stop-color="rgb(43.920898%, 65.098572%, 82.745361%)" stop-opacity="1"/>
<stop offset="0.355469" stop-color="rgb(43.528748%, 64.706421%, 82.745361%)" stop-opacity="1"/>
<stop offset="0.359375" stop-color="rgb(42.744446%, 64.31427%, 82.35321%)" stop-opacity="1"/>
<stop offset="0.363281" stop-color="rgb(41.960144%, 63.922119%, 81.96106%)" stop-opacity="1"/>
<stop offset="0.367188" stop-color="rgb(41.175842%, 63.922119%, 81.96106%)" stop-opacity="1"/>
<stop offset="0.371094" stop-color="rgb(40.783691%, 63.137817%, 81.568909%)" stop-opacity="1"/>
<stop offset="0.375" stop-color="rgb(39.99939%, 62.745667%, 81.568909%)" stop-opacity="1"/>
<stop offset="0.378906" stop-color="rgb(39.215088%, 62.353516%, 81.176758%)" stop-opacity="1"/>
<stop offset="0.382812" stop-color="rgb(38.430786%, 61.961365%, 80.784607%)" stop-opacity="1"/>
<stop offset="0.386719" stop-color="rgb(38.038635%, 61.961365%, 80.784607%)" stop-opacity="1"/>
<stop offset="0.390625" stop-color="rgb(37.254333%, 61.569214%, 80.392456%)" stop-opacity="1"/>
<stop offset="0.394531" stop-color="rgb(36.470032%, 61.177063%, 80.392456%)" stop-opacity="1"/>
<stop offset="0.398438" stop-color="rgb(36.077881%, 60.784912%, 80.000305%)" stop-opacity="1"/>
<stop offset="0.402344" stop-color="rgb(35.293579%, 60.784912%, 80.000305%)" stop-opacity="1"/>
<stop offset="0.40625" stop-color="rgb(34.901428%, 60.392761%, 79.608154%)" stop-opacity="1"/>
<stop offset="0.410156" stop-color="rgb(34.117126%, 60.00061%, 79.608154%)" stop-opacity="1"/>
<stop offset="0.414062" stop-color="rgb(33.724976%, 60.00061%, 79.608154%)" stop-opacity="1"/>
<stop offset="0.417969" stop-color="rgb(32.940674%, 59.608459%, 79.216003%)" stop-opacity="1"/>
<stop offset="0.421875" stop-color="rgb(32.156372%, 59.216309%, 79.216003%)" stop-opacity="1"/>
<stop offset="0.425781" stop-color="rgb(31.764221%, 58.824158%, 78.823853%)" stop-opacity="1"/>
<stop offset="0.429688" stop-color="rgb(30.979919%, 58.824158%, 78.823853%)" stop-opacity="1"/>
<stop offset="0.433594" stop-color="rgb(30.587769%, 58.432007%, 78.431702%)" stop-opacity="1"/>
<stop offset="0.4375" stop-color="rgb(29.803467%, 58.039856%, 78.431702%)" stop-opacity="1"/>
<stop offset="0.441406" stop-color="rgb(29.411316%, 58.039856%, 78.431702%)" stop-opacity="1"/>
<stop offset="0.445312" stop-color="rgb(28.627014%, 57.647705%, 78.039551%)" stop-opacity="1"/>
<stop offset="0.449219" stop-color="rgb(27.842712%, 57.647705%, 78.039551%)" stop-opacity="1"/>
<stop offset="0.453125" stop-color="rgb(27.450562%, 57.255554%, 77.6474%)" stop-opacity="1"/>
<stop offset="0.457031" stop-color="rgb(27.058411%, 57.255554%, 77.6474%)" stop-opacity="1"/>
<stop offset="0.460938" stop-color="rgb(26.274109%, 56.863403%, 77.6474%)" stop-opacity="1"/>
<stop offset="0.464844" stop-color="rgb(25.881958%, 56.471252%, 77.255249%)" stop-opacity="1"/>
<stop offset="0.46875" stop-color="rgb(25.097656%, 56.471252%, 77.255249%)" stop-opacity="1"/>
<stop offset="0.472656" stop-color="rgb(24.705505%, 56.079102%, 77.255249%)" stop-opacity="1"/>
<stop offset="0.476562" stop-color="rgb(23.921204%, 56.079102%, 77.255249%)" stop-opacity="1"/>
<stop offset="0.480469" stop-color="rgb(23.529053%, 55.686951%, 76.863098%)" stop-opacity="1"/>
<stop offset="0.484375" stop-color="rgb(22.744751%, 55.686951%, 76.863098%)" stop-opacity="1"/>
<stop offset="0.488281" stop-color="rgb(22.3526%, 55.686951%, 76.863098%)" stop-opacity="1"/>
<stop offset="0.492188" stop-color="rgb(21.960449%, 55.2948%, 76.470947%)" stop-opacity="1"/>
<stop offset="0.496094" stop-color="rgb(21.568298%, 55.2948%, 76.470947%)" stop-opacity="1"/>
<stop offset="0.5" stop-color="rgb(20.783997%, 54.902649%, 76.470947%)" stop-opacity="1"/>
<stop offset="0.503906" stop-color="rgb(20.391846%, 54.902649%, 76.470947%)" stop-opacity="1"/>
<stop offset="0.507812" stop-color="rgb(19.607544%, 54.510498%, 76.078796%)" stop-opacity="1"/>
<stop offset="0.511719" stop-color="rgb(19.215393%, 54.510498%, 76.078796%)" stop-opacity="1"/>
<stop offset="0.515625" stop-color="rgb(18.823242%, 54.510498%, 76.078796%)" stop-opacity="1"/>
<stop offset="0.519531" stop-color="rgb(18.431091%, 54.118347%, 75.686646%)" stop-opacity="1"/>
<stop offset="0.523438" stop-color="rgb(17.64679%, 54.118347%, 75.686646%)" stop-opacity="1"/>
<stop offset="0.527344" stop-color="rgb(17.254639%, 54.118347%, 75.686646%)" stop-opacity="1"/>
<stop offset="0.53125" stop-color="rgb(16.862488%, 54.118347%, 75.686646%)" stop-opacity="1"/>
<stop offset="0.535156" stop-color="rgb(16.470337%, 53.726196%, 75.686646%)" stop-opacity="1"/>
<stop offset="0.539062" stop-color="rgb(16.078186%, 53.726196%, 75.294495%)" stop-opacity="1"/>
<stop offset="0.542969" stop-color="rgb(15.686035%, 53.726196%, 75.294495%)" stop-opacity="1"/>
<stop offset="0.546875" stop-color="rgb(15.293884%, 53.334045%, 75.294495%)" stop-opacity="1"/>
<stop offset="0.550781" stop-color="rgb(14.509583%, 53.334045%, 75.294495%)" stop-opacity="1"/>
<stop offset="0.554688" stop-color="rgb(14.117432%, 53.334045%, 75.294495%)" stop-opacity="1"/>
<stop offset="0.558594" stop-color="rgb(13.725281%, 52.941895%, 74.902344%)" stop-opacity="1"/>
<stop offset="0.5625" stop-color="rgb(13.33313%, 52.941895%, 74.902344%)" stop-opacity="1"/>
<stop offset="0.566406" stop-color="rgb(12.940979%, 52.941895%, 74.902344%)" stop-opacity="1"/>
<stop offset="0.570312" stop-color="rgb(12.548828%, 52.941895%, 74.902344%)" stop-opacity="1"/>
<stop offset="0.574219" stop-color="rgb(12.156677%, 52.941895%, 74.902344%)" stop-opacity="1"/>
<stop offset="0.578125" stop-color="rgb(11.764526%, 52.941895%, 74.902344%)" stop-opacity="1"/>
<stop offset="0.582031" stop-color="rgb(11.372375%, 52.941895%, 74.902344%)" stop-opacity="1"/>
<stop offset="0.585938" stop-color="rgb(11.372375%, 52.941895%, 74.902344%)" stop-opacity="1"/>
<stop offset="0.589844" stop-color="rgb(10.980225%, 52.549744%, 74.902344%)" stop-opacity="1"/>
<stop offset="0.59375" stop-color="rgb(10.588074%, 52.549744%, 74.902344%)" stop-opacity="1"/>
<stop offset="0.597656" stop-color="rgb(10.588074%, 52.549744%, 74.902344%)" stop-opacity="1"/>
<stop offset="0.601562" stop-color="rgb(10.195923%, 52.549744%, 74.902344%)" stop-opacity="1"/>
<stop offset="0.609375" stop-color="rgb(10.195923%, 52.549744%, 74.902344%)" stop-opacity="1"/>
<stop offset="0.625" stop-color="rgb(10.195923%, 52.549744%, 74.902344%)" stop-opacity="1"/>
<stop offset="0.628906" stop-color="rgb(10.980225%, 52.549744%, 74.902344%)" stop-opacity="1"/>
<stop offset="0.632812" stop-color="rgb(11.372375%, 52.549744%, 74.902344%)" stop-opacity="1"/>
<stop offset="0.636719" stop-color="rgb(12.156677%, 52.941895%, 74.902344%)" stop-opacity="1"/>
<stop offset="0.640625" stop-color="rgb(12.548828%, 52.941895%, 74.902344%)" stop-opacity="1"/>
<stop offset="0.644531" stop-color="rgb(13.33313%, 52.941895%, 74.902344%)" stop-opacity="1"/>
<stop offset="0.648438" stop-color="rgb(14.117432%, 53.334045%, 74.902344%)" stop-opacity="1"/>
<stop offset="0.652344" stop-color="rgb(14.901733%, 53.334045%, 75.294495%)" stop-opacity="1"/>
<stop offset="0.65625" stop-color="rgb(15.686035%, 53.726196%, 75.294495%)" stop-opacity="1"/>
<stop offset="0.660156" stop-color="rgb(16.470337%, 53.726196%, 75.294495%)" stop-opacity="1"/>
<stop offset="0.664062" stop-color="rgb(17.254639%, 53.726196%, 75.686646%)" stop-opacity="1"/>
<stop offset="0.667969" stop-color="rgb(18.03894%, 54.118347%, 75.686646%)" stop-opacity="1"/>
<stop offset="0.671875" stop-color="rgb(19.215393%, 54.510498%, 75.686646%)" stop-opacity="1"/>
<stop offset="0.675781" stop-color="rgb(19.999695%, 54.510498%, 75.686646%)" stop-opacity="1"/>
<stop offset="0.679688" stop-color="rgb(20.783997%, 54.510498%, 76.078796%)" stop-opacity="1"/>
<stop offset="0.683594" stop-color="rgb(21.960449%, 54.902649%, 76.078796%)" stop-opacity="1"/>
<stop offset="0.6875" stop-color="rgb(22.744751%, 55.2948%, 76.470947%)" stop-opacity="1"/>
<stop offset="0.691406" stop-color="rgb(23.529053%, 55.686951%, 76.470947%)" stop-opacity="1"/>
<stop offset="0.695312" stop-color="rgb(24.705505%, 56.079102%, 76.863098%)" stop-opacity="1"/>
<stop offset="0.699219" stop-color="rgb(25.489807%, 56.079102%, 76.863098%)" stop-opacity="1"/>
<stop offset="0.703125" stop-color="rgb(26.274109%, 56.471252%, 77.255249%)" stop-opacity="1"/>
<stop offset="0.707031" stop-color="rgb(27.450562%, 56.863403%, 77.255249%)" stop-opacity="1"/>
<stop offset="0.710938" stop-color="rgb(28.234863%, 57.255554%, 77.6474%)" stop-opacity="1"/>
<stop offset="0.714844" stop-color="rgb(29.019165%, 57.647705%, 77.6474%)" stop-opacity="1"/>
<stop offset="0.71875" stop-color="rgb(30.195618%, 58.039856%, 78.039551%)" stop-opacity="1"/>
<stop offset="0.722656" stop-color="rgb(30.979919%, 58.432007%, 78.039551%)" stop-opacity="1"/>
<stop offset="0.726562" stop-color="rgb(32.156372%, 58.824158%, 78.431702%)" stop-opacity="1"/>
<stop offset="0.730469" stop-color="rgb(32.940674%, 59.216309%, 78.431702%)" stop-opacity="1"/>
<stop offset="0.734375" stop-color="rgb(34.117126%, 59.608459%, 78.823853%)" stop-opacity="1"/>
<stop offset="0.738281" stop-color="rgb(35.293579%, 60.00061%, 79.216003%)" stop-opacity="1"/>
<stop offset="0.742188" stop-color="rgb(36.077881%, 60.784912%, 79.608154%)" stop-opacity="1"/>
<stop offset="0.746094" stop-color="rgb(37.254333%, 61.177063%, 79.608154%)" stop-opacity="1"/>
<stop offset="0.75" stop-color="rgb(38.038635%, 61.569214%, 80.000305%)" stop-opacity="1"/>
<stop offset="0.753906" stop-color="rgb(39.215088%, 61.961365%, 80.000305%)" stop-opacity="1"/>
<stop offset="0.757813" stop-color="rgb(40.391541%, 62.745667%, 80.392456%)" stop-opacity="1"/>
<stop offset="0.761719" stop-color="rgb(41.175842%, 63.137817%, 80.784607%)" stop-opacity="1"/>
<stop offset="0.765625" stop-color="rgb(42.352295%, 63.529968%, 80.784607%)" stop-opacity="1"/>
<stop offset="0.769531" stop-color="rgb(43.528748%, 63.922119%, 81.568909%)" stop-opacity="1"/>
<stop offset="0.773438" stop-color="rgb(44.7052%, 64.706421%, 81.96106%)" stop-opacity="1"/>
<stop offset="0.777344" stop-color="rgb(45.881653%, 65.098572%, 82.35321%)" stop-opacity="1"/>
<stop offset="0.78125" stop-color="rgb(47.058105%, 65.882874%, 82.35321%)" stop-opacity="1"/>
<stop offset="0.785156" stop-color="rgb(47.842407%, 66.275024%, 82.745361%)" stop-opacity="1"/>
<stop offset="0.789062" stop-color="rgb(49.01886%, 67.059326%, 83.137512%)" stop-opacity="1"/>
<stop offset="0.792969" stop-color="rgb(50.196838%, 67.843628%, 83.529663%)" stop-opacity="1"/>
<stop offset="0.796875" stop-color="rgb(51.373291%, 68.235779%, 83.921814%)" stop-opacity="1"/>
<stop offset="0.800781" stop-color="rgb(52.549744%, 69.020081%, 83.921814%)" stop-opacity="1"/>
<stop offset="0.804688" stop-color="rgb(53.726196%, 69.804382%, 84.313965%)" stop-opacity="1"/>
<stop offset="0.808594" stop-color="rgb(54.902649%, 70.588684%, 84.706116%)" stop-opacity="1"/>
<stop offset="0.8125" stop-color="rgb(56.471252%, 70.980835%, 85.490417%)" stop-opacity="1"/>
<stop offset="0.816406" stop-color="rgb(57.647705%, 71.765137%, 85.490417%)" stop-opacity="1"/>
<stop offset="0.820312" stop-color="rgb(59.216309%, 72.549438%, 85.882568%)" stop-opacity="1"/>
<stop offset="0.824219" stop-color="rgb(60.392761%, 73.33374%, 86.66687%)" stop-opacity="1"/>
<stop offset="0.828125" stop-color="rgb(61.569214%, 74.118042%, 87.059021%)" stop-opacity="1"/>
<stop offset="0.832031" stop-color="rgb(62.745667%, 74.902344%, 87.451172%)" stop-opacity="1"/>
<stop offset="0.835938" stop-color="rgb(63.922119%, 75.686646%, 87.843323%)" stop-opacity="1"/>
<stop offset="0.839844" stop-color="rgb(65.098572%, 76.470947%, 88.235474%)" stop-opacity="1"/>
<stop offset="0.84375" stop-color="rgb(66.667175%, 77.255249%, 88.627625%)" stop-opacity="1"/>
<stop offset="0.847656" stop-color="rgb(67.843628%, 78.431702%, 89.019775%)" stop-opacity="1"/>
<stop offset="0.851562" stop-color="rgb(69.020081%, 79.216003%, 89.411926%)" stop-opacity="1"/>
<stop offset="0.855469" stop-color="rgb(70.588684%, 80.000305%, 90.196228%)" stop-opacity="1"/>
<stop offset="0.859375" stop-color="rgb(71.765137%, 80.784607%, 90.588379%)" stop-opacity="1"/>
<stop offset="0.863281" stop-color="rgb(73.33374%, 81.568909%, 90.98053%)" stop-opacity="1"/>
<stop offset="0.867187" stop-color="rgb(74.510193%, 82.35321%, 91.372681%)" stop-opacity="1"/>
<stop offset="0.871094" stop-color="rgb(75.686646%, 83.529663%, 91.764832%)" stop-opacity="1"/>
<stop offset="0.875" stop-color="rgb(77.255249%, 84.313965%, 92.549133%)" stop-opacity="1"/>
<stop offset="0.878906" stop-color="rgb(78.823853%, 85.098267%, 92.941284%)" stop-opacity="1"/>
<stop offset="0.882813" stop-color="rgb(80.000305%, 86.274719%, 93.333435%)" stop-opacity="1"/>
<stop offset="0.886719" stop-color="rgb(81.568909%, 87.451172%, 93.725586%)" stop-opacity="1"/>
<stop offset="0.890625" stop-color="rgb(83.137512%, 88.235474%, 94.117737%)" stop-opacity="1"/>
<stop offset="0.894531" stop-color="rgb(84.313965%, 89.411926%, 94.902039%)" stop-opacity="1"/>
<stop offset="0.898438" stop-color="rgb(85.882568%, 90.196228%, 95.294189%)" stop-opacity="1"/>
<stop offset="0.902344" stop-color="rgb(87.451172%, 91.372681%, 96.078491%)" stop-opacity="1"/>
<stop offset="0.90625" stop-color="rgb(89.019775%, 92.156982%, 96.470642%)" stop-opacity="1"/>
<stop offset="0.910156" stop-color="rgb(90.196228%, 93.333435%, 96.862793%)" stop-opacity="1"/>
<stop offset="0.914062" stop-color="rgb(91.764832%, 94.509888%, 97.254944%)" stop-opacity="1"/>
<stop offset="0.917969" stop-color="rgb(93.333435%, 95.68634%, 98.039246%)" stop-opacity="1"/>
<stop offset="0.921875" stop-color="rgb(94.902039%, 96.862793%, 98.431396%)" stop-opacity="1"/>
<stop offset="0.925781" stop-color="rgb(96.470642%, 97.647095%, 99.215698%)" stop-opacity="1"/>
<stop offset="0.929688" stop-color="rgb(98.039246%, 98.823547%, 99.607849%)" stop-opacity="1"/>
<stop offset="0.933594" stop-color="rgb(98.823547%, 99.215698%, 99.607849%)" stop-opacity="1"/>
<stop offset="0.9375" stop-color="rgb(100%, 100%, 100%)" stop-opacity="1"/>
<stop offset="1" stop-color="rgb(100%, 100%, 100%)" stop-opacity="1"/>
</linearGradient>
</defs>

<path fill-rule="nonzero" fill="rgb(100%, 100%, 100%)" fill-opacity="1" d="M 420.953125 245.152344 L 420.953125 230.402344 L 415.136719 230.402344 L 415.136719 226.972656 L 430.976562 226.972656 L 430.976562 230.402344 L 425.160156 230.402344 L 425.160156 245.152344 Z M 420.953125 245.152344 "/>
<path fill-rule="nonzero" fill="rgb(100%, 100%, 100%)" fill-opacity="1" d="M 438.171875 242.035156 C 438.847656 242.035156 439.453125 241.878906 439.988281 241.566406 C 440.523438 241.253906 440.949219 240.808594 441.261719 240.230469 C 441.574219 239.648438 441.730469 238.960938 441.730469 238.164062 C 441.730469 237.351562 441.574219 236.660156 441.261719 236.085938 C 440.949219 235.515625 440.523438 235.074219 439.988281 234.761719 C 439.453125 234.453125 438.847656 234.296875 438.171875 234.296875 C 437.496094 234.296875 436.890625 234.453125 436.351562 234.761719 C 435.816406 235.074219 435.386719 235.515625 435.066406 236.085938 C 434.746094 236.660156 434.585938 237.351562 434.585938 238.164062 C 434.585938 238.960938 434.746094 239.648438 435.066406 240.230469 C 435.386719 240.808594 435.816406 241.253906 436.351562 241.566406 C 436.890625 241.878906 437.496094 242.035156 438.171875 242.035156 M 438.171875 245.359375 C 436.683594 245.359375 435.363281 245.046875 434.210938 244.421875 C 433.058594 243.800781 432.152344 242.949219 431.484375 241.867188 C 430.816406 240.785156 430.484375 239.550781 430.484375 238.164062 C 430.484375 236.761719 430.816406 235.519531 431.484375 234.4375 C 432.152344 233.355469 433.058594 232.507812 434.210938 231.894531 C 435.363281 231.28125 436.683594 230.972656 438.171875 230.972656 C 439.640625 230.972656 440.957031 231.28125 442.117188 231.894531 C 443.277344 232.507812 444.1875 233.351562 444.84375 234.425781 C 445.503906 235.5 445.832031 236.746094 445.832031 238.164062 C 445.832031 239.550781 445.503906 240.785156 444.84375 241.867188 C 444.1875 242.949219 443.277344 243.800781 442.117188 244.421875 C 440.957031 245.046875 439.640625 245.359375 438.171875 245.359375 "/>
<path fill-rule="nonzero" fill="rgb(100%, 100%, 100%)" fill-opacity="1" d="M 454.425781 245.359375 C 453.265625 245.359375 452.234375 245.132812 451.324219 244.683594 C 450.414062 244.234375 449.707031 243.546875 449.207031 242.617188 C 448.703125 241.691406 448.453125 240.511719 448.453125 239.074219 L 448.453125 231.179688 L 452.503906 231.179688 L 452.503906 238.476562 C 452.503906 239.636719 452.75 240.488281 453.246094 241.035156 C 453.738281 241.578125 454.4375 241.851562 455.335938 241.851562 C 455.957031 241.851562 456.511719 241.71875 456.996094 241.449219 C 457.484375 241.179688 457.863281 240.765625 458.140625 240.203125 C 458.417969 239.640625 458.558594 238.933594 458.558594 238.085938 L 458.558594 231.179688 L 462.605469 231.179688 L 462.605469 245.152344 L 458.765625 245.152344 L 458.765625 241.308594 L 459.464844 242.425781 C 458.996094 243.394531 458.308594 244.125 457.402344 244.617188 C 456.492188 245.113281 455.5 245.359375 454.425781 245.359375 "/>
<path fill-rule="nonzero" fill="rgb(100%, 100%, 100%)" fill-opacity="1" d="M 473.125 245.359375 C 471.617188 245.359375 470.277344 245.050781 469.101562 244.4375 C 467.921875 243.820312 467 242.96875 466.332031 241.878906 C 465.667969 240.789062 465.332031 239.550781 465.332031 238.164062 C 465.332031 236.761719 465.667969 235.519531 466.332031 234.4375 C 467 233.355469 467.921875 232.507812 469.101562 231.894531 C 470.277344 231.28125 471.617188 230.972656 473.125 230.972656 C 474.597656 230.972656 475.878906 231.28125 476.96875 231.894531 C 478.058594 232.507812 478.863281 233.386719 479.382812 234.53125 L 476.238281 236.21875 C 475.878906 235.558594 475.421875 235.074219 474.878906 234.761719 C 474.332031 234.453125 473.738281 234.296875 473.097656 234.296875 C 472.40625 234.296875 471.78125 234.453125 471.230469 234.761719 C 470.675781 235.074219 470.238281 235.515625 469.917969 236.085938 C 469.597656 236.660156 469.4375 237.351562 469.4375 238.164062 C 469.4375 238.980469 469.597656 239.671875 469.917969 240.242188 C 470.238281 240.8125 470.675781 241.253906 471.230469 241.566406 C 471.78125 241.878906 472.40625 242.035156 473.097656 242.035156 C 473.738281 242.035156 474.332031 241.882812 474.878906 241.578125 C 475.421875 241.277344 475.878906 240.789062 476.238281 240.113281 L 479.382812 241.828125 C 478.863281 242.953125 478.058594 243.820312 476.96875 244.4375 C 475.878906 245.050781 474.597656 245.359375 473.125 245.359375 "/>
<path fill-rule="nonzero" fill="rgb(100%, 100%, 100%)" fill-opacity="1" d="M 490.105469 230.972656 C 491.214844 230.972656 492.207031 231.191406 493.082031 231.632812 C 493.957031 232.074219 494.640625 232.75 495.144531 233.660156 C 495.648438 234.570312 495.898438 235.734375 495.898438 237.152344 L 495.898438 245.152344 L 491.847656 245.152344 L 491.847656 237.777344 C 491.847656 236.648438 491.601562 235.820312 491.105469 235.28125 C 490.613281 234.746094 489.917969 234.476562 489.015625 234.476562 C 488.375 234.476562 487.800781 234.613281 487.289062 234.878906 C 486.777344 235.148438 486.382812 235.558594 486.09375 236.113281 C 485.808594 236.667969 485.667969 237.378906 485.667969 238.242188 L 485.667969 245.152344 L 481.617188 245.152344 L 481.617188 225.882812 L 485.667969 225.882812 L 485.667969 235.050781 L 484.757812 233.878906 C 485.257812 232.945312 485.976562 232.226562 486.914062 231.726562 C 487.847656 231.222656 488.914062 230.972656 490.105469 230.972656 "/>
<path fill-rule="nonzero" fill="rgb(100%, 100%, 100%)" fill-opacity="1" d="M 508.128906 245.152344 L 508.128906 242.425781 L 507.871094 241.828125 L 507.871094 236.945312 C 507.871094 236.078125 507.605469 235.40625 507.078125 234.917969 C 506.550781 234.433594 505.738281 234.191406 504.648438 234.191406 C 503.90625 234.191406 503.171875 234.308594 502.453125 234.542969 C 501.738281 234.777344 501.125 235.09375 500.625 235.492188 L 499.167969 232.660156 C 499.933594 232.125 500.847656 231.707031 501.921875 231.414062 C 502.996094 231.121094 504.085938 230.972656 505.195312 230.972656 C 507.324219 230.972656 508.976562 231.472656 510.15625 232.476562 C 511.332031 233.480469 511.921875 235.046875 511.921875 237.179688 L 511.921875 245.152344 Z M 503.871094 245.359375 C 502.78125 245.359375 501.84375 245.171875 501.066406 244.800781 C 500.285156 244.425781 499.6875 243.921875 499.273438 243.28125 C 498.859375 242.640625 498.652344 241.921875 498.652344 241.125 C 498.652344 240.292969 498.855469 239.566406 499.261719 238.945312 C 499.667969 238.320312 500.3125 237.832031 501.195312 237.476562 C 502.078125 237.121094 503.230469 236.945312 504.648438 236.945312 L 508.363281 236.945312 L 508.363281 239.308594 L 505.089844 239.308594 C 504.140625 239.308594 503.484375 239.464844 503.128906 239.773438 C 502.777344 240.085938 502.597656 240.476562 502.597656 240.945312 C 502.597656 241.464844 502.800781 241.875 503.207031 242.175781 C 503.613281 242.480469 504.171875 242.632812 504.882812 242.632812 C 505.558594 242.632812 506.164062 242.472656 506.699219 242.152344 C 507.238281 241.832031 507.625 241.359375 507.871094 240.734375 L 508.492188 242.605469 C 508.199219 243.507812 507.660156 244.191406 506.882812 244.65625 C 506.101562 245.125 505.101562 245.359375 503.871094 245.359375 "/>
<path fill-rule="nonzero" fill="rgb(100%, 100%, 100%)" fill-opacity="1" d="M 523.136719 242.035156 C 523.8125 242.035156 524.414062 241.878906 524.945312 241.566406 C 525.472656 241.253906 525.894531 240.808594 526.214844 240.230469 C 526.535156 239.648438 526.695312 238.960938 526.695312 238.164062 C 526.695312 237.351562 526.535156 236.660156 526.214844 236.085938 C 525.894531 235.515625 525.472656 235.074219 524.945312 234.761719 C 524.414062 234.453125 523.8125 234.296875 523.136719 234.296875 C 522.464844 234.296875 521.859375 234.453125 521.320312 234.761719 C 520.785156 235.074219 520.359375 235.515625 520.046875 236.085938 C 519.738281 236.660156 519.582031 237.351562 519.582031 238.164062 C 519.582031 238.960938 519.738281 239.648438 520.046875 240.230469 C 520.359375 240.808594 520.785156 241.253906 521.320312 241.566406 C 521.859375 241.878906 522.464844 242.035156 523.136719 242.035156 M 523.839844 245.359375 C 522.609375 245.359375 521.554688 245.097656 520.671875 244.578125 C 519.789062 244.058594 519.113281 243.269531 518.644531 242.203125 C 518.179688 241.136719 517.945312 239.792969 517.945312 238.164062 C 517.945312 236.519531 518.191406 235.167969 518.683594 234.113281 C 519.179688 233.058594 519.867188 232.269531 520.75 231.75 C 521.632812 231.230469 522.660156 230.972656 523.839844 230.972656 C 525.15625 230.972656 526.335938 231.265625 527.382812 231.855469 C 528.433594 232.441406 529.261719 233.273438 529.875 234.347656 C 530.492188 235.421875 530.796875 236.695312 530.796875 238.164062 C 530.796875 239.621094 530.492188 240.882812 529.875 241.957031 C 529.261719 243.03125 528.433594 243.863281 527.382812 244.460938 C 526.335938 245.058594 525.15625 245.359375 523.839844 245.359375 M 515.582031 245.152344 L 515.582031 225.882812 L 519.632812 225.882812 L 519.632812 234.011719 L 519.371094 238.140625 L 519.453125 242.292969 L 519.453125 245.152344 Z M 515.582031 245.152344 "/>
<path fill-rule="nonzero" fill="rgb(100%, 100%, 100%)" fill-opacity="1" d="M 533.5 225.882812 L 537.550781 225.882812 L 537.550781 245.152344 L 533.5 245.152344 Z M 533.5 225.882812 "/>
<path fill-rule="nonzero" fill="rgb(100%, 100%, 100%)" fill-opacity="1" d="M 548.25 245.359375 C 546.65625 245.359375 545.257812 245.046875 544.054688 244.421875 C 542.851562 243.800781 541.921875 242.945312 541.261719 241.867188 C 540.605469 240.785156 540.277344 239.550781 540.277344 238.164062 C 540.277344 236.761719 540.601562 235.519531 541.25 234.4375 C 541.898438 233.355469 542.785156 232.507812 543.914062 231.894531 C 545.035156 231.28125 546.308594 230.972656 547.730469 230.972656 C 549.097656 230.972656 550.332031 231.261719 551.429688 231.839844 C 552.527344 232.421875 553.398438 233.253906 554.039062 234.335938 C 554.679688 235.417969 555 236.710938 555 238.21875 C 555 238.371094 554.992188 238.550781 554.972656 238.75 C 554.957031 238.949219 554.941406 239.136719 554.921875 239.308594 L 543.574219 239.308594 L 543.574219 236.945312 L 552.792969 236.945312 L 551.234375 237.644531 C 551.234375 236.917969 551.089844 236.285156 550.792969 235.75 C 550.5 235.214844 550.09375 234.792969 549.574219 234.492188 C 549.054688 234.1875 548.449219 234.035156 547.753906 234.035156 C 547.0625 234.035156 546.453125 234.1875 545.925781 234.492188 C 545.398438 234.792969 544.984375 235.21875 544.691406 235.761719 C 544.398438 236.308594 544.25 236.953125 544.25 237.699219 L 544.25 238.320312 C 544.25 239.082031 544.417969 239.753906 544.757812 240.332031 C 545.09375 240.914062 545.570312 241.355469 546.183594 241.65625 C 546.800781 241.960938 547.519531 242.113281 548.351562 242.113281 C 549.097656 242.113281 549.75 242 550.3125 241.773438 C 550.875 241.550781 551.390625 241.210938 551.859375 240.761719 L 554.011719 243.097656 C 553.371094 243.824219 552.566406 244.382812 551.597656 244.773438 C 550.628906 245.164062 549.511719 245.359375 548.25 245.359375 "/>
<path fill-rule="nonzero" fill="rgb(100%, 100%, 100%)" fill-opacity="1" d="M 417.1875 258.136719 L 421.394531 258.136719 L 421.394531 276.3125 L 417.1875 276.3125 Z M 417.1875 258.136719 "/>
<path fill-rule="nonzero" fill="rgb(100%, 100%, 100%)" fill-opacity="1" d="M 433.910156 262.132812 C 435.019531 262.132812 436.011719 262.355469 436.886719 262.796875 C 437.761719 263.238281 438.445312 263.914062 438.949219 264.820312 C 439.453125 265.730469 439.703125 266.894531 439.703125 268.316406 L 439.703125 276.3125 L 435.652344 276.3125 L 435.652344 268.9375 C 435.652344 267.8125 435.40625 266.980469 434.910156 266.445312 C 434.417969 265.910156 433.722656 265.640625 432.820312 265.640625 C 432.179688 265.640625 431.605469 265.773438 431.09375 266.042969 C 430.582031 266.3125 430.1875 266.722656 429.898438 267.277344 C 429.613281 267.832031 429.472656 268.539062 429.472656 269.40625 L 429.472656 276.3125 L 425.421875 276.3125 L 425.421875 262.34375 L 429.289062 262.34375 L 429.289062 266.210938 L 428.5625 265.042969 C 429.0625 264.109375 429.78125 263.390625 430.71875 262.886719 C 431.652344 262.386719 432.71875 262.132812 433.910156 262.132812 "/>
<path fill-rule="nonzero" fill="rgb(100%, 100%, 100%)" fill-opacity="1" d="M 449.078125 276.519531 C 447.433594 276.519531 446.152344 276.101562 445.234375 275.261719 C 444.316406 274.421875 443.855469 273.171875 443.855469 271.507812 L 443.855469 259.25 L 447.910156 259.25 L 447.910156 271.457031 C 447.910156 272.046875 448.0625 272.5 448.375 272.820312 C 448.6875 273.140625 449.113281 273.300781 449.648438 273.300781 C 450.289062 273.300781 450.835938 273.128906 451.285156 272.78125 L 452.375 275.636719 C 451.960938 275.933594 451.460938 276.152344 450.882812 276.300781 C 450.300781 276.445312 449.699219 276.519531 449.078125 276.519531 M 441.703125 262.652344 L 451.386719 262.652344 L 451.386719 265.769531 L 441.703125 265.769531 Z M 441.703125 262.652344 "/>
<path fill-rule="nonzero" fill="rgb(100%, 100%, 100%)" fill-opacity="1" d="M 461.152344 276.519531 C 459.558594 276.519531 458.160156 276.207031 456.960938 275.585938 C 455.753906 274.960938 454.824219 274.109375 454.167969 273.027344 C 453.507812 271.945312 453.179688 270.710938 453.179688 269.328125 C 453.179688 267.925781 453.503906 266.683594 454.15625 265.601562 C 454.804688 264.519531 455.691406 263.671875 456.816406 263.054688 C 457.941406 262.441406 459.214844 262.132812 460.632812 262.132812 C 462 262.132812 463.234375 262.421875 464.335938 263.003906 C 465.433594 263.585938 466.300781 264.414062 466.945312 265.496094 C 467.582031 266.578125 467.90625 267.875 467.90625 269.378906 C 467.90625 269.535156 467.894531 269.710938 467.878906 269.910156 C 467.863281 270.113281 467.84375 270.296875 467.828125 270.46875 L 456.476562 270.46875 L 456.476562 268.105469 L 465.699219 268.105469 L 464.140625 268.808594 C 464.140625 268.082031 463.992188 267.449219 463.699219 266.914062 C 463.402344 266.375 462.996094 265.957031 462.476562 265.652344 C 461.957031 265.351562 461.351562 265.199219 460.660156 265.199219 C 459.96875 265.199219 459.355469 265.351562 458.828125 265.652344 C 458.300781 265.957031 457.890625 266.378906 457.59375 266.925781 C 457.300781 267.46875 457.152344 268.117188 457.152344 268.859375 L 457.152344 269.484375 C 457.152344 270.246094 457.324219 270.917969 457.660156 271.496094 C 457.996094 272.074219 458.472656 272.515625 459.089844 272.820312 C 459.703125 273.125 460.425781 273.273438 461.257812 273.273438 C 462 273.273438 462.652344 273.164062 463.214844 272.9375 C 463.78125 272.710938 464.296875 272.375 464.761719 271.925781 L 466.917969 274.261719 C 466.277344 274.988281 465.472656 275.546875 464.503906 275.9375 C 463.53125 276.324219 462.417969 276.519531 461.152344 276.519531 "/>
<path fill-rule="nonzero" fill="rgb(100%, 100%, 100%)" fill-opacity="1" d="M 470.605469 276.3125 L 470.605469 262.34375 L 474.472656 262.34375 L 474.472656 266.289062 L 473.929688 265.144531 C 474.34375 264.160156 475.011719 263.410156 475.929688 262.898438 C 476.847656 262.390625 477.960938 262.132812 479.277344 262.132812 L 479.277344 265.875 C 479.105469 265.855469 478.949219 265.84375 478.8125 265.835938 C 478.671875 265.824219 478.527344 265.820312 478.367188 265.820312 C 477.261719 265.820312 476.367188 266.136719 475.683594 266.769531 C 474.996094 267.402344 474.65625 268.382812 474.65625 269.71875 L 474.65625 276.3125 Z M 470.605469 276.3125 "/>
<path fill-rule="nonzero" fill="rgb(100%, 100%, 100%)" fill-opacity="1" d="M 482.292969 276.3125 L 482.292969 262.03125 C 482.292969 260.457031 482.757812 259.195312 483.691406 258.25 C 484.628906 257.308594 485.960938 256.835938 487.691406 256.835938 C 488.28125 256.835938 488.847656 256.898438 489.394531 257.019531 C 489.9375 257.140625 490.402344 257.328125 490.78125 257.589844 L 489.71875 260.523438 C 489.492188 260.367188 489.242188 260.246094 488.964844 260.160156 C 488.6875 260.074219 488.394531 260.03125 488.082031 260.03125 C 487.492188 260.03125 487.039062 260.199219 486.71875 260.535156 C 486.398438 260.875 486.238281 261.382812 486.238281 262.054688 L 486.238281 263.355469 L 486.34375 265.09375 L 486.34375 276.3125 Z M 480.136719 262.652344 L 489.820312 262.652344 L 489.820312 265.769531 L 480.136719 265.769531 Z M 480.136719 262.652344 "/>
<path fill-rule="nonzero" fill="rgb(100%, 100%, 100%)" fill-opacity="1" d="M 500.15625 276.3125 L 500.15625 273.585938 L 499.898438 272.988281 L 499.898438 268.105469 C 499.898438 267.242188 499.632812 266.566406 499.105469 266.082031 C 498.578125 265.597656 497.769531 265.355469 496.675781 265.355469 C 495.933594 265.355469 495.203125 265.472656 494.484375 265.703125 C 493.765625 265.9375 493.152344 266.253906 492.652344 266.652344 L 491.199219 263.820312 C 491.960938 263.285156 492.878906 262.871094 493.949219 262.574219 C 495.023438 262.28125 496.113281 262.132812 497.222656 262.132812 C 499.351562 262.132812 501.007812 262.636719 502.183594 263.640625 C 503.359375 264.644531 503.949219 266.210938 503.949219 268.339844 L 503.949219 276.3125 Z M 495.898438 276.519531 C 494.808594 276.519531 493.871094 276.332031 493.09375 275.960938 C 492.316406 275.589844 491.71875 275.085938 491.300781 274.441406 C 490.886719 273.804688 490.679688 273.085938 490.679688 272.289062 C 490.679688 271.457031 490.882812 270.730469 491.289062 270.105469 C 491.695312 269.484375 492.339844 268.992188 493.222656 268.640625 C 494.105469 268.285156 495.257812 268.105469 496.675781 268.105469 L 500.390625 268.105469 L 500.390625 270.46875 L 497.117188 270.46875 C 496.167969 270.46875 495.515625 270.625 495.160156 270.9375 C 494.804688 271.25 494.625 271.636719 494.625 272.105469 C 494.625 272.625 494.828125 273.035156 495.234375 273.339844 C 495.644531 273.644531 496.199219 273.792969 496.910156 273.792969 C 497.585938 273.792969 498.191406 273.632812 498.730469 273.3125 C 499.265625 272.992188 499.65625 272.519531 499.898438 271.898438 L 500.519531 273.769531 C 500.226562 274.667969 499.691406 275.351562 498.910156 275.820312 C 498.132812 276.285156 497.128906 276.519531 495.898438 276.519531 "/>
<path fill-rule="nonzero" fill="rgb(100%, 100%, 100%)" fill-opacity="1" d="M 514.464844 276.519531 C 512.957031 276.519531 511.617188 276.214844 510.441406 275.597656 C 509.261719 274.984375 508.339844 274.132812 507.675781 273.039062 C 507.007812 271.949219 506.675781 270.710938 506.675781 269.328125 C 506.675781 267.925781 507.007812 266.683594 507.675781 265.601562 C 508.339844 264.519531 509.261719 263.671875 510.441406 263.054688 C 511.617188 262.441406 512.957031 262.132812 514.464844 262.132812 C 515.9375 262.132812 517.21875 262.441406 518.308594 263.054688 C 519.398438 263.671875 520.203125 264.550781 520.722656 265.691406 L 517.582031 267.378906 C 517.21875 266.722656 516.765625 266.238281 516.21875 265.925781 C 515.671875 265.613281 515.078125 265.457031 514.441406 265.457031 C 513.746094 265.457031 513.125 265.613281 512.570312 265.925781 C 512.015625 266.238281 511.578125 266.679688 511.257812 267.25 C 510.9375 267.820312 510.777344 268.511719 510.777344 269.328125 C 510.777344 270.140625 510.9375 270.832031 511.257812 271.40625 C 511.578125 271.976562 512.015625 272.417969 512.570312 272.730469 C 513.125 273.039062 513.746094 273.195312 514.441406 273.195312 C 515.078125 273.195312 515.671875 273.046875 516.21875 272.742188 C 516.765625 272.441406 517.21875 271.949219 517.582031 271.273438 L 520.722656 272.988281 C 520.203125 274.113281 519.398438 274.984375 518.308594 275.597656 C 517.21875 276.214844 515.9375 276.519531 514.464844 276.519531 "/>
<path fill-rule="nonzero" fill="rgb(100%, 100%, 100%)" fill-opacity="1" d="M 529.8125 276.519531 C 528.21875 276.519531 526.820312 276.207031 525.617188 275.585938 C 524.414062 274.960938 523.484375 274.109375 522.828125 273.027344 C 522.167969 271.945312 521.839844 270.710938 521.839844 269.328125 C 521.839844 267.925781 522.164062 266.683594 522.8125 265.601562 C 523.464844 264.519531 524.351562 263.671875 525.476562 263.054688 C 526.601562 262.441406 527.875 262.132812 529.292969 262.132812 C 530.660156 262.132812 531.894531 262.421875 532.992188 263.003906 C 534.09375 263.585938 534.960938 264.414062 535.605469 265.496094 C 536.242188 266.578125 536.5625 267.875 536.5625 269.378906 C 536.5625 269.535156 536.554688 269.710938 536.539062 269.910156 C 536.519531 270.113281 536.503906 270.296875 536.488281 270.46875 L 525.136719 270.46875 L 525.136719 268.105469 L 534.355469 268.105469 L 532.800781 268.808594 C 532.800781 268.082031 532.652344 267.449219 532.359375 266.914062 C 532.0625 266.375 531.65625 265.957031 531.136719 265.652344 C 530.617188 265.351562 530.011719 265.199219 529.320312 265.199219 C 528.628906 265.199219 528.015625 265.351562 527.488281 265.652344 C 526.960938 265.957031 526.546875 266.378906 526.253906 266.925781 C 525.960938 267.46875 525.8125 268.117188 525.8125 268.859375 L 525.8125 269.484375 C 525.8125 270.246094 525.980469 270.917969 526.320312 271.496094 C 526.65625 272.074219 527.132812 272.515625 527.75 272.820312 C 528.363281 273.125 529.085938 273.273438 529.917969 273.273438 C 530.660156 273.273438 531.3125 273.164062 531.875 272.9375 C 532.4375 272.710938 532.953125 272.375 533.421875 271.925781 L 535.578125 274.261719 C 534.9375 274.988281 534.132812 275.546875 533.164062 275.9375 C 532.191406 276.324219 531.074219 276.519531 529.8125 276.519531 "/>
<path fill-rule="nonzero" fill="rgb(100%, 100%, 100%)" fill-opacity="1" d="M 417.1875 307.476562 L 417.1875 289.296875 L 421.394531 289.296875 L 421.394531 304.046875 L 430.511719 304.046875 L 430.511719 307.476562 Z M 417.1875 307.476562 "/>
<path fill-rule="nonzero" fill="rgb(100%, 100%, 100%)" fill-opacity="1" d="M 441.261719 307.476562 L 441.261719 304.75 L 441 304.152344 L 441 299.269531 C 441 298.402344 440.738281 297.730469 440.207031 297.242188 C 439.679688 296.757812 438.871094 296.515625 437.78125 296.515625 C 437.039062 296.515625 436.304688 296.632812 435.585938 296.867188 C 434.867188 297.101562 434.257812 297.417969 433.753906 297.816406 L 432.300781 294.984375 C 433.0625 294.449219 433.980469 294.03125 435.054688 293.738281 C 436.128906 293.445312 437.21875 293.296875 438.328125 293.296875 C 440.453125 293.296875 442.109375 293.796875 443.285156 294.800781 C 444.464844 295.804688 445.050781 297.375 445.050781 299.503906 L 445.050781 307.476562 Z M 437 307.683594 C 435.910156 307.683594 434.976562 307.496094 434.199219 307.125 C 433.417969 306.753906 432.820312 306.246094 432.40625 305.605469 C 431.992188 304.964844 431.78125 304.246094 431.78125 303.449219 C 431.78125 302.617188 431.984375 301.890625 432.394531 301.269531 C 432.796875 300.644531 433.445312 300.15625 434.328125 299.800781 C 435.210938 299.445312 436.359375 299.269531 437.78125 299.269531 L 441.492188 299.269531 L 441.492188 301.632812 L 438.222656 301.632812 C 437.269531 301.632812 436.617188 301.789062 436.261719 302.101562 C 435.90625 302.410156 435.730469 302.800781 435.730469 303.269531 C 435.730469 303.789062 435.933594 304.199219 436.339844 304.5 C 436.746094 304.804688 437.304688 304.957031 438.015625 304.957031 C 438.691406 304.957031 439.296875 304.796875 439.832031 304.476562 C 440.367188 304.15625 440.757812 303.683594 441 303.058594 L 441.625 304.929688 C 441.328125 305.832031 440.792969 306.515625 440.015625 306.980469 C 439.234375 307.449219 438.230469 307.683594 437 307.683594 "/>
<path fill-rule="nonzero" fill="rgb(100%, 100%, 100%)" fill-opacity="1" d="M 456.269531 304.359375 C 456.945312 304.359375 457.546875 304.203125 458.074219 303.890625 C 458.601562 303.578125 459.027344 303.132812 459.347656 302.554688 C 459.667969 301.972656 459.828125 301.285156 459.828125 300.488281 C 459.828125 299.675781 459.667969 298.984375 459.347656 298.410156 C 459.027344 297.839844 458.601562 297.398438 458.074219 297.085938 C 457.546875 296.777344 456.945312 296.621094 456.269531 296.621094 C 455.59375 296.621094 454.988281 296.777344 454.453125 297.085938 C 453.917969 297.398438 453.492188 297.839844 453.179688 298.410156 C 452.867188 298.984375 452.710938 299.675781 452.710938 300.488281 C 452.710938 301.285156 452.867188 301.972656 453.179688 302.554688 C 453.492188 303.132812 453.917969 303.578125 454.453125 303.890625 C 454.988281 304.203125 455.59375 304.359375 456.269531 304.359375 M 456.972656 307.683594 C 455.742188 307.683594 454.6875 307.421875 453.800781 306.902344 C 452.921875 306.382812 452.246094 305.59375 451.777344 304.527344 C 451.308594 303.460938 451.078125 302.117188 451.078125 300.488281 C 451.078125 298.84375 451.324219 297.492188 451.816406 296.4375 C 452.308594 295.382812 453 294.59375 453.878906 294.074219 C 454.765625 293.554688 455.792969 293.296875 456.972656 293.296875 C 458.285156 293.296875 459.46875 293.589844 460.515625 294.179688 C 461.5625 294.765625 462.394531 295.597656 463.007812 296.671875 C 463.625 297.746094 463.929688 299.015625 463.929688 300.488281 C 463.929688 301.945312 463.625 303.207031 463.007812 304.28125 C 462.394531 305.355469 461.5625 306.191406 460.515625 306.785156 C 459.46875 307.382812 458.285156 307.683594 456.972656 307.683594 M 448.714844 307.476562 L 448.714844 288.207031 L 452.765625 288.207031 L 452.765625 296.335938 L 452.503906 300.464844 L 452.582031 304.617188 L 452.582031 307.476562 Z M 448.714844 307.476562 "/>
<path fill-rule="nonzero" fill="rgb(100%, 100%, 100%)" fill-opacity="1" d="M 307.007812 224.574219 C 306.300781 224.574219 305.605469 224.777344 304.976562 225.179688 C 303.863281 225.886719 303.226562 227.050781 303.226562 228.371094 L 303.226562 283.429688 C 303.226562 285 304.097656 286.417969 305.5 287.132812 L 352.027344 310.75 C 352.953125 311.21875 354.035156 311.175781 354.917969 310.632812 C 355.804688 310.089844 356.332031 309.144531 356.332031 308.105469 L 356.332031 251.75 C 356.332031 248.890625 354.65625 246.269531 352.066406 245.066406 L 308.609375 224.933594 C 308.089844 224.691406 307.546875 224.574219 307.007812 224.574219 M 353.371094 314.074219 C 352.453125 314.074219 351.527344 313.855469 350.671875 313.421875 L 304.144531 289.804688 C 301.730469 288.578125 300.230469 286.136719 300.230469 283.429688 L 300.230469 228.371094 C 300.230469 226.042969 301.402344 223.90625 303.363281 222.652344 C 305.324219 221.398438 307.757812 221.238281 309.867188 222.214844 L 353.324219 242.347656 C 356.972656 244.039062 359.328125 247.730469 359.328125 251.75 L 359.328125 308.105469 C 359.328125 310.195312 358.265625 312.09375 356.488281 313.1875 C 355.527344 313.777344 354.449219 314.074219 353.371094 314.074219 "/>
<path fill-rule="nonzero" fill="rgb(100%, 100%, 100%)" fill-opacity="1" d="M 381.421875 304.777344 C 380.503906 304.777344 379.578125 304.5625 378.722656 304.128906 L 357.152344 293.175781 L 358.507812 290.503906 L 380.078125 301.453125 C 381.003906 301.925781 382.085938 301.878906 382.96875 301.339844 C 383.855469 300.796875 384.382812 299.851562 384.382812 298.8125 L 384.382812 242.453125 C 384.382812 239.597656 382.707031 236.972656 380.113281 235.773438 L 336.660156 215.636719 C 335.460938 215.085938 334.140625 215.171875 333.027344 215.882812 C 331.914062 216.59375 331.277344 217.757812 331.277344 219.078125 L 331.277344 233.585938 L 328.28125 233.585938 L 328.28125 219.078125 C 328.28125 216.75 329.453125 214.609375 331.414062 213.355469 C 333.375 212.105469 335.808594 211.941406 337.921875 212.921875 L 381.375 233.054688 C 385.023438 234.746094 387.378906 238.433594 387.378906 242.453125 L 387.378906 298.8125 C 387.378906 300.898438 386.316406 302.800781 384.539062 303.890625 C 383.578125 304.480469 382.503906 304.777344 381.421875 304.777344 "/>
<path fill-rule="nonzero" fill="rgb(100%, 100%, 100%)" fill-opacity="1" d="M 330.414062 254.21875 L 286.957031 234.085938 C 283.453125 232.460938 279.445312 235.019531 279.445312 238.882812 L 279.445312 275.21875 C 279.445312 275.792969 279.886719 276.289062 280.460938 276.324219 C 289.523438 276.847656 296.707031 284.363281 296.707031 293.554688 C 296.707031 297.070312 295.652344 300.339844 293.84375 303.070312 C 293.410156 303.722656 293.632812 304.609375 294.335938 304.964844 L 329.066406 322.597656 C 332.035156 324.101562 335.550781 321.945312 335.550781 318.617188 L 335.550781 262.261719 C 335.550781 258.808594 333.546875 255.671875 330.414062 254.21875 "/>
<g clip-path="url(#clip-1)">
<g clip-path="url(#clip-2)">
<path fill-rule="nonzero" fill="url(#linear-pattern-0)" d="M 272.375 271.441406 L 255.363281 299.316406 L 283.238281 316.328125 L 300.25 288.453125 Z M 272.375 271.441406 "/>
</g>
</g>
</svg>
