<svg preserveAspectRatio="none" overflow="visible" style="display: block;" width="976" height="706" viewBox="0 0 976 706" fill="none" xmlns="http://www.w3.org/2000/svg">
<g id="Editable Planet Surface" filter="url(#filter0_d_0_265)">
<ellipse cx="506" cy="365" rx="460" ry="325" fill="url(#paint0_linear_0_265)"/>
<path d="M506 40.75C632.889 40.75 747.733 77.089 830.836 135.803C913.941 194.518 965.25 275.562 965.25 365C965.25 454.438 913.941 535.482 830.836 594.197C747.733 652.911 632.889 689.25 506 689.25C379.111 689.25 264.267 652.911 181.164 594.197C98.0594 535.482 46.75 454.438 46.75 365C46.75 275.562 98.0594 194.518 181.164 135.803C264.267 77.089 379.111 40.75 506 40.75Z" stroke="#59A1FF" stroke-opacity="0.72" stroke-width="1.5"/>
</g>
<defs>
<filter id="filter0_d_0_265" x="0" y="0" width="976" height="706" filterUnits="userSpaceOnUse" color-interpolation-filters="sRGB">
<feFlood flood-opacity="0" result="BackgroundImageFix"/>
<feColorMatrix in="SourceAlpha" type="matrix" values="0 0 0 0 0 0 0 0 0 0 0 0 0 0 0 0 0 0 127 0" result="hardAlpha"/>
<feOffset dx="-18" dy="-12"/>
<feGaussianBlur stdDeviation="14"/>
<feColorMatrix type="matrix" values="0 0 0 0 0.2 0 0 0 0 0.5 0 0 0 0 1 0 0 0 0.45 0"/>
<feBlend mode="screen" in2="BackgroundImageFix" result="effect1_dropShadow_0_265"/>
<feBlend mode="normal" in="SourceGraphic" in2="effect1_dropShadow_0_265" result="shape"/>
</filter>
<linearGradient id="paint0_linear_0_265" x1="-119.766" y1="-12.7027" x2="-14.9143" y2="877.728" gradientUnits="userSpaceOnUse">
<stop stop-color="#010203"/>
<stop offset="0.42" stop-color="#040A13"/>
<stop offset="0.72" stop-color="#122B4F"/>
<stop offset="1" stop-color="#010203"/>
</linearGradient>
</defs>
</svg>
